Coordinates
version=1
nRows=18
nColumns=33
inDegrees=yes

Units are S.I. units (second, meters, Newtons, ...)
Angles are in degrees.

endheader
time	ground_thorax_rot_x	ground_thorax_rot_y	ground_thorax_rot_z	ground_thorax_tx	ground_thorax_ty	ground_thorax_tz	clav_prot_r	clav_elev_r	scapula_abduction_r	scapula_elevation_r	scapula_upward_rot_r	scapula_winging_r	shoulder_elv_r	plane_of_elev_r	axial_rot_r	elbow_flexion_r	pro_sup_r	wrist_flex_r	wrist_dev_r	clav_prot_l	clav_elev_l	scapula_abduction_l	scapula_elevation_l	scapula_upward_rot_l	scapula_winging_l	shoulder_elv_l	plane_of_elev_l	axial_rot_l	elbow_flexion_l	pro_sup_l	wrist_flex_l	wrist_dev_l	
2.5000	17.518557	37.922473	19.654508	-0.013578	1.019226	-0.058514	-13.546357	34.851854	-9.165353	26.192874	44.999213	-8.462042	8.033952	-89.964987	37.312147	76.612449	-20.684072	25.316779	-11.901555	18.662140	-10.839037	-45.000000	4.105642	6.623269	18.849137	17.074075	-48.039878	-30.906904	64.068228	6.250134	16.982096	-11.261775	
2.5100	17.440728	38.024225	19.668309	-0.013658	1.019238	-0.058668	-13.579457	34.734718	-9.067005	26.079927	44.998590	-8.522761	8.122545	-89.940803	37.303375	76.557592	-20.978351	25.001826	-11.734352	18.791808	-10.983874	-45.000000	4.085518	6.149191	18.819471	17.305007	-47.282202	-30.799504	63.798204	5.919298	17.353959	-10.884989	
2.5200	17.365815	38.126409	19.674200	-0.013736	1.019258	-0.058812	-13.618865	34.612308	-8.978740	25.961985	44.997477	-8.585956	8.243720	-89.902663	37.323911	76.492244	-21.251564	24.710402	-11.587320	18.919345	-11.137081	-45.000000	4.072682	5.680246	18.784288	17.533821	-46.524545	-30.690933	63.513876	5.612049	17.698794	-10.522665	
2.5300	17.294341	38.228365	19.673726	-0.013813	1.019282	-0.058942	-13.663511	34.489170	-8.905719	25.843627	44.995473	-8.649248	8.415866	-89.836423	37.397242	76.415839	-21.505850	24.436561	-11.458106	19.045708	-11.298521	-45.000000	4.066034	5.212903	18.743968	17.762420	-45.765242	-30.581268	63.214415	5.324345	18.023652	-10.172851	
2.5400	17.226020	38.327160	19.669197	-0.013884	1.019301	-0.059063	-13.713787	34.368418	-8.854329	25.728044	44.991909	-8.710567	8.673422	-89.728499	37.555556	76.336869	-21.747243	24.163958	-11.339119	19.170892	-11.463100	-45.000000	4.061505	4.746611	18.701171	17.985937	-45.006547	-30.462915	62.903970	5.047654	18.344172	-9.830193	
2.5500	17.162463	38.429075	19.665463	-0.013948	1.019313	-0.059174	-13.772699	34.257765	-8.845711	25.622821	44.985458	-8.765757	9.084687	-89.550758	37.872773	76.255265	-21.979803	23.886493	-11.229377	19.298781	-11.634992	-45.000000	4.057430	4.264862	18.654938	18.212689	-44.236299	-30.340605	62.579153	4.770318	18.672484	-9.492159	
2.5600	17.101187	38.535025	19.662304	-0.013989	1.019309	-0.059279	-13.848134	34.147450	-8.888285	25.519135	44.974088	-8.818625	9.748089	-89.295934	38.439667	76.187973	-22.203618	23.607420	-11.128654	19.429934	-11.811514	-45.000000	4.050429	3.763785	18.606783	18.450413	-43.456728	-30.220104	62.252151	4.486778	19.007188	-9.160399	
2.5700	17.038377	38.654718	19.655775	-0.014018	1.019335	-0.059384	-13.958451	34.009562	-8.993873	25.391623	44.953200	-8.881684	10.855514	-88.935913	39.450898	76.139805	-22.428190	23.314644	-11.030651	19.567963	-12.001238	-45.000000	4.044602	3.233048	18.553259	18.716906	-42.652784	-30.115546	61.914612	4.181863	19.354287	-8.821905	
2.5800	16.966852	38.800903	19.645060	-0.014025	1.019428	-0.059494	-14.130049	33.808959	-9.185594	25.208012	44.917242	-8.970484	12.687901	-88.449318	41.173595	76.130655	-22.657935	23.004709	-10.935362	19.718179	-12.212426	-45.000000	4.038868	2.648628	18.491612	19.037815	-41.804687	-30.039854	61.568707	3.840097	19.712396	-8.467526	
2.5900	16.882993	38.988516	19.595754	-0.013995	1.019670	-0.059643	-14.427914	33.446862	-9.507982	24.879153	44.848760	-9.127467	15.955600	-87.727034	44.297398	76.211011	-22.883879	22.668190	-10.846146	19.875649	-12.453602	-45.000000	4.047737	2.035630	18.414652	19.431968	-40.908234	-30.014713	61.211499	3.454794	20.070612	-8.093144	
2.6000	16.780629	39.225058	19.484861	-0.013917	1.020117	-0.059856	-14.893097	32.851779	-9.975531	24.339986	44.737449	-9.383666	21.061415	-86.726238	49.203674	76.411572	-23.098590	22.302910	-10.766265	20.034544	-12.727511	-45.000000	4.082224	1.422575	18.318053	19.903620	-39.972015	-30.045833	60.842933	3.032105	20.410870	-7.696953	
2.6100	16.626661	39.594395	19.205893	-0.013701	1.021129	-0.060263	-15.817263	31.613211	-10.835319	23.220553	44.506352	-9.914535	31.153393	-84.949627	58.950917	76.958106	-23.266902	21.863836	-10.710966	20.180771	-13.076100	-45.000000	4.199358	0.886269	18.170416	20.542371	-38.977822	-30.231530	60.441441	2.527251	20.706010	-7.260361	
2.6200	16.435221	40.069389	18.799962	-0.013377	1.022596	-0.060831	-17.096193	29.866835	-11.992238	21.644426	44.180896	-10.658797	45.133500	-82.587605	72.466386	77.773439	-23.393179	21.368547	-10.681405	20.316088	-13.489882	-45.000000	4.388439	0.416335	17.977621	21.295100	-37.951041	-30.518792	60.011909	1.979156	20.960368	-6.796721	
2.6300	16.229860	40.613033	18.282716	-0.012975	1.024390	-0.061524	-18.630513	27.737356	-13.345683	19.724801	43.786964	-11.561274	61.947495	-79.810331	88.719634	78.801648	-23.478466	20.827797	-10.673829	20.439677	-13.954252	-45.000000	4.638241	0.013638	17.747767	22.103534	-36.911023	-30.828388	59.560070	1.438432	21.188543	-6.320847	
2.6400	16.050378	41.106724	17.805493	-0.012610	1.026039	-0.062171	-20.015343	25.774171	-14.531577	17.957929	43.427643	-12.384842	77.176969	-77.325112	103.425323	79.726175	-23.542125	20.322546	-10.676480	20.549191	-14.408540	-45.000000	4.896930	-0.331964	17.516477	22.795264	-35.968407	-31.025347	59.110038	1.026085	21.388793	-5.892133	
2.6500	15.901478	41.540382	17.377814	-0.012301	1.027476	-0.062747	-21.210997	24.041580	-15.522658	16.401190	43.114667	-13.104004	90.311078	-75.205857	116.079067	80.519728	-23.605722	19.838200	-10.667877	20.654485	-14.840656	-45.000000	5.138723	-0.671934	17.295770	23.376945	-35.078529	-31.082045	58.661672	0.740303	21.600982	-5.507089	
2.6600	15.808232	41.834499	17.124168	-0.012146	1.028334	-0.063128	-21.917737	22.964144	-16.072514	15.438127	42.921343	-13.536688	98.082826	-73.957983	123.514908	80.939700	-23.706429	19.428499	-10.630567	20.765894	-15.202106	-45.000000	5.305710	-1.068766	17.119518	23.761336	-34.274844	-30.946215	58.234391	0.618262	21.845875	-5.192594	
2.6700	15.763178	42.017695	17.007573	-0.012124	1.028679	-0.063336	-22.225050	22.445983	-16.285207	14.980701	42.821074	-13.730075	101.299522	-73.423089	126.503275	81.055077	-23.866008	19.060423	-10.550344	20.896941	-15.498883	-45.000000	5.381307	-1.589286	16.991064	24.026577	-33.462004	-30.650146	57.825085	0.624572	22.159909	-4.931211	
